Coordinates
version=1
nRows=12
nColumns=42
inDegrees=yes

Units are S.I. units (second, meters, Newtons, ...)
If the header above contains a line with 'inDegrees', this indicates whether rotational values are in degrees (yes) or radians (no).

endheader
time	pelvis_tilt	pelvis_list	pelvis_rotation	pelvis_tx	pelvis_ty	pelvis_tz	hip_flexion_r	hip_adduction_r	hip_rotation_r	knee_angle_r	knee_adduction_r	knee_angle_r_beta	ankle_angle_r	subtalar_angle_r	mtp_angle_r	hip_flexion_l	hip_adduction_l	hip_rotation_l	knee_angle_l	knee_adduction_l	knee_angle_l_beta	ankle_angle_l	subtalar_angle_l	mtp_angle_l	lumbar_extension	lumbar_bending	lumbar_rotation	arm_flex_r	arm_add_r	arm_rot_r	elbow_flex_r	pro_sup_r	wrist_flex_r	wrist_dev_r	arm_flex_l	arm_add_l	arm_rot_l	elbow_flex_l	pro_sup_l	wrist_flex_l	wrist_dev_l
      0.00000000	     14.49674566	     -0.88279610	      2.82422231	     -1.13391701	      0.85383600	     -0.26968153	     12.05244258	      1.81202586	    -11.65022456	     19.75859069	     -1.22551911	      0.34485246	     14.27308209	     -9.47677376	     -9.43280620	    -26.78487562	     -1.44472824	    -13.88003257	      2.25028417	      6.27054789	      0.03927487	     23.32933752	      5.88036519	     -9.43280620	    -29.99145709	      1.68484911	      0.89553929	    -11.17117834	     -5.21336758	    -12.22355849	     28.77034171	     90.00000001	      0.00000000	      0.00000000	     27.12962154	     -9.77463748	     -1.15129162	     46.81084597	     90.00000001	      0.00000000	      0.00000000
      0.01000000	     14.29170347	     -0.51994442	      2.96658958	     -1.12383829	      0.85179742	     -0.26971348	     12.38340788	      1.30165375	    -12.29679954	     17.42254187	     -0.96818611	      0.30408072	     14.08755413	     -7.91386353	     -9.39082304	    -27.17571404	     -0.99238994	    -13.74424495	      2.51667668	      5.81521064	      0.04392429	     23.74418715	      6.02345405	     -9.39082304	    -29.78074658	      1.42671383	      0.65553820	    -11.70041142	     -5.11232082	    -12.19295235	     28.59547749	     90.00000001	      0.00000000	      0.00000000	     27.67682367	     -9.86379372	     -0.80449465	     47.74473154	     90.00000001	      0.00000000	      0.00000000
      0.02000000	     14.30320236	     -0.42688065	      3.26483655	     -1.11323696	      0.84999689	     -0.26954255	     12.52488536	      1.07912324	    -14.05445572	     15.53183331	     -0.97173422	      0.27108163	     14.62114819	     -4.41689970	     -9.22559592	    -27.88515415	     -1.10393892	    -13.64098272	      2.77699228	      5.77765839	      0.04846766	     24.09007895	      6.42130939	     -9.22559592	    -29.73494599	      1.48838787	      0.49750009	    -12.25099458	     -4.96187731	    -12.43849655	     28.41808245	     90.00000001	      0.00000000	      0.00000000	     28.08530768	    -10.05855078	      0.06479821	     48.84085723	     90.00000001	      0.00000000	      0.00000000
      0.03000000	     14.14243655	     -0.14746826	      3.49021740	     -1.10286790	      0.84811012	     -0.26944409	     12.90835929	      0.56447572	    -15.51167129	     14.17278317	     -0.81978788	      0.24736173	     14.93056176	     -1.72462189	     -9.03602340	    -28.27938072	     -0.84764625	    -13.54393441	      3.21059327	      5.35742681	      0.05603542	     24.45431290	      6.92802319	     -9.03602340	    -29.56604979	      1.34834854	      0.30405105	    -12.64513494	     -4.78741803	    -12.77241929	     28.18877049	     90.00000001	      0.00000000	      0.00000000	     28.49680975	    -10.12870350	      0.54053870	     49.74430392	     90.00000001	      0.00000000	      0.00000000
      0.04000000	     13.93543985	      0.14594356	      3.69038545	     -1.09255030	      0.84635712	     -0.26932975	     13.17441496	      0.08597456	    -16.11213176	     12.86699380	     -0.57289689	      0.22457141	     14.68267227	     -0.70397509	     -9.00038905	    -28.60370338	     -0.56239370	    -13.29647820	      3.68872885	      4.90880381	      0.06438046	     24.66815860	      7.12663626	     -9.00038905	    -29.35846475	      1.19759042	      0.08285618	    -12.95824642	     -4.68401275	    -12.85766936	     27.99819290	     90.00000001	      0.00000000	      0.00000000	     28.82738155	    -10.17297884	      0.86595149	     50.51398540	     90.00000001	      0.00000000	      0.00000000
      0.05000000	     13.60529434	      0.32965705	      3.70698438	     -1.08203057	      0.84448203	     -0.26884828	     13.72890754	     -0.22821994	    -16.65866153	     12.25788283	     -0.48387767	      0.21394041	     14.55609439	     -0.42033211	     -8.98573582	    -28.83426881	     -0.37384258	    -13.23588031	      4.16795609	      4.61455215	      0.07274456	     24.70098957	      7.20529234	     -8.98573582	    -28.99297511	      1.08015011	      0.16270649	    -13.30446197	     -4.60536545	    -12.89897550	     27.86123853	     90.00000001	      0.00000000	      0.00000000	     29.14109563	    -10.05853347	      1.03310604	     51.02097110	     90.00000001	      0.00000000	      0.00000000
      0.06000000	     13.62266455	      0.38947422	      4.20764418	     -1.07112888	      0.84328403	     -0.26851495	     13.75837920	     -0.51772014	    -18.34359302	     11.94450297	     -0.48501931	      0.20847090	     14.77220882	      1.99004081	     -8.86069875	    -29.02887963	     -0.72624353	    -14.13355620	      5.60499406	      4.30684051	      0.09782560	     25.47865114	      9.12943092	     -8.86069875	    -28.96564642	      1.27024578	     -0.22600258	    -13.36231650	     -4.34132693	    -13.87697271	     27.52865956	     90.00000001	      0.00000000	      0.00000000	     29.14885422	    -10.50019535	      2.23599618	     51.98407473	     90.00000001	      0.00000000	      0.00000000
      0.07000000	     13.31156338	      0.49309059	      4.29417082	     -1.06030256	      0.84183751	     -0.26793964	     14.13635837	     -0.72495283	    -18.59715386	     11.91881180	     -0.50102799	      0.20802251	     14.62963635	      1.93902866	     -8.84940719	    -29.17053688	     -0.67434724	    -13.99692115	      6.30067241	      3.93015280	      0.10996748	     25.44303812	      9.18929547	     -8.84940719	    -28.59379991	      1.27983873	     -0.20295871	    -13.56140432	     -4.30605440	    -13.88515210	     27.40794300	     90.00000001	      0.00000000	      0.00000000	     29.23708768	    -10.39563348	      2.30417090	     52.30585685	     90.00000001	      0.00000000	      0.00000000
      0.08000000	     13.20562157	      0.59000712	      4.66644865	     -1.04930764	      0.84090324	     -0.26737802	     14.27496758	     -1.03344736	    -19.55057324	     12.43302884	     -0.54880770	      0.21699729	     14.25123337	      1.39415997	     -8.82088221	    -29.26715965	     -0.88012254	    -14.27097406	      7.58960573	      3.51892657	      0.13246361	     25.50302304	      9.49255258	     -8.82088221	    -28.43920530	      1.38244628	     -0.54458899	    -13.50171783	     -4.19326380	    -14.03483588	     27.10083290	     90.00000001	      0.00000000	      0.00000000	     29.09781230	    -10.58152606	      2.70633463	     52.89820054	     90.00000001	      0.00000000	      0.00000000
      0.09000000	     13.20918310	      0.32077546	      4.91270552	     -1.03774671	      0.84017015	     -0.26628323	     14.21356678	     -0.77912181	    -20.47927358	     13.06210313	     -0.81535296	      0.22797671	     14.02476722	      1.04912694	     -8.69882041	    -29.28125193	     -1.66426428	    -16.06792687	      9.46867084	      3.30859104	      0.16525948	     26.25181507	     12.18511384	     -8.69882041	    -28.31958161	      1.80885096	     -0.45120853	    -13.47366181	     -4.03734559	    -14.88101899	     26.85414011	     90.00000001	      0.00000000	      0.00000000	     28.93405501	    -10.64032217	      3.24856591	     53.24898481	     90.00000001	      0.00000000	      0.00000000
      0.10000000	     13.04727247	      0.20411321	      5.04174979	     -1.02629541	      0.83958901	     -0.26514152	     14.34892558	     -0.68930659	    -21.09619118	     13.99838437	     -1.11095075	      0.24431790	     13.66915652	      0.13414369	     -8.67613265	    -29.33284419	     -2.02240987	    -16.14367506	     10.73225086	      2.95396675	      0.18731311	     25.88680788	     11.95567263	     -8.67613265	    -28.05958677	      2.03330968	     -0.41438442	    -13.39396120	     -4.02993140	    -14.86777762	     26.65032887	     90.00000001	      0.00000000	      0.00000000	     28.69093055	    -10.54434252	      3.22610954	     53.31974562	     90.00000001	      0.00000000	      0.00000000
      0.11000000	     13.02070205	     -0.17527369	      5.24273975	     -1.01451304	      0.83943947	     -0.26378800	     14.13901607	     -0.22203388	    -21.51504172	     14.78484218	     -1.39844730	      0.25804418	     12.84776945	     -1.69651420	     -8.57851850	    -29.34653998	     -2.83646901	    -16.81551853	     12.42614205	      2.67174052	      0.21687709	     25.77524332	     12.72900618	     -8.57851850	    -27.89996883	      2.55718502	     -0.30282237	    -13.20847847	     -4.00230468	    -15.25986778	     26.40682932	     90.00000001	      0.00000000	      0.00000000	     28.32893679	    -10.44815515	      3.25617830	     53.33897102	     90.00000001	      0.00000000	      0.00000000
